<svg class="waves" xmlns="http://www.w3.org/2000/svg" xmlns:xlink="http://www.w3.org/1999/xlink" width="131px" height="133px" viewBox="0 0 131 133" version="1.1">
  <defs>
    <ellipse id="path-1" cx="64.5" cy="66.5" rx="64.5" ry="66.5"/>
  </defs>
  <g id="Page-1" stroke="none" stroke-width="1" fill="none" fill-rule="evenodd">
    <g id="Group" transform="translate(1.000000, 0.000000)">
      <mask id="mask-2" fill="white">
        <use xlink:href="#path-1"/>
      </mask>
      <g id="waves" mask="url(#mask-2)">
        <g transform="translate(-27.000000, 55.000000)">
          <path d="M39.0833333 7.71256283C31.2333333 7.71256283 26 0.862562834 26 0.862562834L26.1715685 77.8096196 183 77.9999987 183 0.862562833C183 0.862562833 177.766667 7.71256283 169.916667 7.71256283 162.066667 7.71256283 156.833333 0.862562833 156.833333 0.862562833 156.833333 0.862562833 151.6 7.71256283 143.75 7.71256283 135.9 7.71256283 130.666667 0.862562833 130.666667 0.862562833 130.666667 0.862562833 125.433333 7.71256283 117.583333 7.71256283 109.733333 7.71256283 104.5 0.862562833 104.5 0.862562833 104.5 0.862562833 99.2666667 7.71256283 91.4166667 7.71256283 83.5666667 7.71256283 78.3333333 0.862562833 78.3333333 0.862562833 78.3333333 0.862562833 73.1 7.71256283 65.25 7.71256283 57.4 7.71256283 52.1666659 0.862562833 52.1666659 0.862562833 52.1666659 0.862562833 46.9333333 7.71256283 39.0833333 7.71256283Z" id="wavez1" fill="#0063A6" opacity="0.977378731"/>
          <g id="duck" stroke-width="1" fill="none" transform="translate(30.000000, 11.000000)">
            <path d="M5.81505792 0.0658128989C7.01354736 0.0908581124 8.12906144 0.704503124 8.68697694 1.77484848 9.41507377 3.17169434 8.95294701 4.88674772 7.67355264 5.90078502 7.47853151 6.10613723 7.3976213 6.355817 7.48704032 6.56277004 7.57769525 6.77258022 7.81971813 6.88754487 8.12864419 6.86715258 8.43757025 6.8467603 9.4273537 6.58599903 9.9116794 6.50705843 10.4335262 6.42200292 10.6281882 6.31336187 11.4070579 5.94994232 12.02744 5.66047476 12.1940778 4.96669086 12.4367298 4.69315393 12.6099005 4.43030839 12.8780097 4.28208667 13.15636 4.33430562 13.3715942 4.3746833 13.5056144 4.44925191 13.6091197 4.63081408 13.6091197 4.63081408 14.1902931 5.74494667 14.2836576 5.95813783 14.3770273 6.17132899 14.8490678 7.01476292 14.9471699 7.85724831 15.6491752 13.8859828 7.18245581 14.5214376 2.92828151 13.6152071 1.30145826 13.2686584 0.0431589613 11.9105619 0.0431589613 10.2020517 0.0431589613 8.92111408 0.743194173 7.80448457 1.78446882 7.20509476 2.11001107 6.9849036 2.39325227 6.7011021 2.61303396 6.35467341 2.73427516 6.16356135 2.83010546 5.96282022 2.90187306 5.75659288 2.6914565 5.54335663 2.50961847 5.29908704 2.36545474 5.02251049 1.52776812 3.4154228 2.26360262 1.38541578 4.00938011 0.48856833 4.55493116 0.208303483 5.13487658 0.0719280674 5.69952095 0.0658155206 5.73834137 0.0653960449 5.77639595 0.0650075056 5.81505792 0.0658155206L5.81505792 0.0658128989Z" id="path3061" fill="#F2C802"/>
            <path d="M0.921324454 7.89165581C0.626706496 8.3993173 0.457523398 8.98864547 0.457523398 9.61707715 0.457523398 11.3255873 1.71582269 12.6836838 3.34264595 13.0302326 6.55964947 13.7155226 11.9791711 13.5189558 14.3629674 10.7755509 12.3521857 14.0745959 6.34757905 14.3463836 2.9151618 13.6152045 1.28833854 13.2686557 0.030039243 11.9105593 0.030039243 10.2020491 0.030039243 9.3133988 0.367285722 8.50430524 0.921324454 7.89165581L0.921324454 7.89165581Z" id="path4022" fill="#DA9C16"/>
            <path d="M4.16729736 2.2320114C3.59666884 2.2320114 3.13406144 2.6912673 3.13406144 3.25776046 3.13406144 3.82425363 3.59666884 4.28350974 4.16729736 4.28350974 4.7379206 4.28350974 5.20052271 3.82425363 5.20052271 3.25776046 5.20052271 3.02974697 5.12427623 2.82015717 4.99751039 2.64984848 5.08929032 2.78595349 5.14441004 2.95058489 5.14441004 3.12667432 5.14441004 3.59970181 4.75765827 3.9820114 4.28118116 3.9820114 3.80470405 3.9820114 3.41795229 3.59970181 3.41795229 3.12667432 3.41795229 2.65364683 3.80470405 2.26969867 4.28118116 2.26969867 4.42616356 2.26969867 4.56232553 2.3052864 4.68226215 2.36801327 4.5307463 2.28145258 4.35465475 2.2320114 4.16729736 2.2320114L4.16729736 2.2320114Z" id="path4046" fill="#DA9C16"/>
            <path d="M5.14398341 3.12599281C5.14398341 3.59902027 4.75772198 3.98248479 4.28124437 3.98248479 3.80476676 3.98248479 3.41850534 3.59902027 3.41850534 3.12599281 3.41850534 2.65296535 3.80476676 2.26950082 4.28124437 2.26950082 4.75772198 2.26950082 5.14398341 2.65296535 5.14398341 3.12599281L5.14398341 3.12599281Z" id="path3945" fill="#393228" transform="translate(4.281244, 3.125993) scale(-1, 1) translate(-4.281244, -3.125993) "/>
            <path d="M3.00098398 4.2628579C2.93858609 4.10425206 2.61126988 3.87965294 2.32790192 3.95146718 2.26169593 3.96824604 2.07419593 3.62220752 2.01031917 3.62979788 1.839541 3.65008965 1.71904452 3.81071343 1.64506389 3.88248671 1.43925227 4.08215094 0.688507553 3.9975039 0.496460018 4.04283978 0.21874875 4.43020929 1.14381037 5.10273783 1.60546706 4.81845288 1.85056389 4.74045034 1.69605861 4.85891498 1.64567657 4.91219835 1.33643889 5.23923993 1.01297234 5.44775918 1.15310086 5.58687356 1.43596178 5.86768787 2.30833854 5.6489376 2.63682798 5.32282779 3.1529118 4.8104818 3.07143116 4.44191318 3.00098398 4.2628579L3.00098398 4.2628579Z" id="path4013" fill="#B94519"/>
            <path id="path4020" stroke="#F2C802" stroke-width="0.792253521"/>
            <path d="M8.2973044 7.35701573C8.2973044 7.35701573 8.96971637 7.26785408 9.79196989 7.08628981 9.86350511 7.07049341 9.93617588 7.05399753 10.0096389 7.0368006 10.2241917 6.98657416 10.4454787 6.93036337 10.6649329 6.86811581 10.8251636 6.82266614 10.81966 6.83209333 10.9936231 6.76441094M11.5146407 6.55604165C12.0822164 6.32361019 12.4095333 6.11712906 12.4643255 6.0219427" id="path4032" stroke="#FFFFFF" stroke-width="0.5"/>
            <path d="M4.77428081 2.90050363C4.77495912 3.04874504 4.69568569 3.1860148 4.56648034 3.26033058 4.437275 3.33464636 4.27789138 3.33464636 4.14868603 3.26033058 4.01948069 3.1860148 3.94020725 3.04874504 3.94088556 2.90050363 3.94020725 2.75226221 4.01948069 2.61499246 4.14868603 2.54067668 4.27789138 2.46636089 4.437275 2.46636089 4.56648034 2.54067668 4.69568569 2.61499246 4.77495912 2.75226221 4.77428081 2.90050363L4.77428081 2.90050363Z" id="path4049" fill="#FFFFFF"/>
            <path d="M6.74187306 0.667247288C6.74187306 0.667247288 7.04965299 0.743184652 7.38358257 1.02607819M7.64345757 1.25548812C7.68481849 1.2959973 7.7269294 1.33975501 7.76951039 1.3870005 8.22488187 1.89226092 8.48165651 2.44130474 8.48165651 2.76041655" id="path4051" stroke="#FFFFFF" stroke-width="0.5"/>
          </g>
          <path d="M13.0833333 24.7125628C5.23333333 24.7125628-3.10862447e-14 17.8625628-3.10862447e-14 17.8625628L0.17156849 77.8096196 157 77.9999987 157 17.8625628C157 17.8625628 151.766667 24.7125628 143.916667 24.7125628 136.066667 24.7125628 130.833333 17.8625628 130.833333 17.8625628 130.833333 17.8625628 125.6 24.7125628 117.75 24.7125628 109.9 24.7125628 104.666667 17.8625628 104.666667 17.8625628 104.666667 17.8625628 99.4333333 24.7125628 91.5833333 24.7125628 83.7333333 24.7125628 78.5 17.8625628 78.5 17.8625628 78.5 17.8625628 73.2666667 24.7125628 65.4166667 24.7125628 57.5666667 24.7125628 52.3333333 17.8625628 52.3333333 17.8625628 52.3333333 17.8625628 47.1 24.7125628 39.25 24.7125628 31.4 24.7125628 26.1666659 17.8625628 26.1666659 17.8625628 26.1666659 17.8625628 20.9333333 24.7125628 13.0833333 24.7125628Z" id="wavez2" fill="#016FB6" opacity="0.977378731"/>
          <path d="M39.0833333 41.7125628C31.2333333 41.7125628 26 34.8625628 26 34.8625628L26.1715685 77.8096196 183 77.9999987 183 34.8625628C183 34.8625628 177.766667 41.7125628 169.916667 41.7125628 162.066667 41.7125628 156.833333 34.8625628 156.833333 34.8625628 156.833333 34.8625628 151.6 41.7125628 143.75 41.7125628 135.9 41.7125628 130.666667 34.8625628 130.666667 34.8625628 130.666667 34.8625628 125.433333 41.7125628 117.583333 41.7125628 109.733333 41.7125628 104.5 34.8625628 104.5 34.8625628 104.5 34.8625628 99.2666667 41.7125628 91.4166667 41.7125628 83.5666667 41.7125628 78.3333333 34.8625628 78.3333333 34.8625628 78.3333333 34.8625628 73.1 41.7125628 65.25 41.7125628 57.4 41.7125628 52.1666659 34.8625628 52.1666659 34.8625628 52.1666659 34.8625628 46.9333333 41.7125628 39.0833333 41.7125628Z" id="wavez3" fill="#007BC6" opacity="0.977378731"/>
          <path d="M13.0833333 61.7125628C5.23333333 61.7125628-2.66453526e-15 54.8625628-2.66453526e-15 54.8625628L0.17156849 91.8096196 157 91.9999987 157 54.8625628C157 54.8625628 151.766667 61.7125628 143.916667 61.7125628 136.066667 61.7125628 130.833333 54.8625628 130.833333 54.8625628 130.833333 54.8625628 125.6 61.7125628 117.75 61.7125628 109.9 61.7125628 104.666667 54.8625628 104.666667 54.8625628 104.666667 54.8625628 99.4333333 61.7125628 91.5833333 61.7125628 83.7333333 61.7125628 78.5 54.8625628 78.5 54.8625628 78.5 54.8625628 73.2666667 61.7125628 65.4166667 61.7125628 57.5666667 61.7125628 52.3333333 54.8625628 52.3333333 54.8625628 52.3333333 54.8625628 47.1 61.7125628 39.25 61.7125628 31.4 61.7125628 26.1666659 54.8625628 26.1666659 54.8625628 26.1666659 54.8625628 20.9333333 61.7125628 13.0833333 61.7125628Z" id="wavez4" fill="#0084D8" opacity="0.977378731"/>
        </g>
      </g>
    </g>
  </g>
</svg>