<?xml version="1.0" encoding="UTF-8" standalone="no"?>
<svg width="181px" height="157px" viewBox="0 0 181 157" version="1.1" xmlns="http://www.w3.org/2000/svg" xmlns:xlink="http://www.w3.org/1999/xlink">
    <!-- Generator: Sketch 3.7.2 (28276) - http://www.bohemiancoding.com/sketch -->
    <title>Logo-White-Panda</title>
    <desc>Created with Sketch.</desc>
    <defs></defs>
    <g id="Page-1" stroke="none" stroke-width="1" fill="none" fill-rule="evenodd">
        <g id="panda" transform="translate(1.000000, 0.000000)">
            <path d="M107.977,16.786 L106.862,16.579 C104.164,16.074 101.375,15.553 98.323,15.33 C98.104,15.317 97.882,15.327 97.667,15.364 C97.891,14.62 98.063,13.853 98.179,13.075 C98.37,11.81 97.627,10.588 96.415,10.176 C95.206,9.762 93.87,10.275 93.245,11.392 C92.78,12.226 92.295,12.978 91.832,13.634 C91.818,13.38 91.796,13.125 91.766,12.869 C91.639,11.793 90.812,10.978 89.766,10.696 C88.718,10.418 87.552,10.876 86.901,11.741 C84.997,14.283 84.236,15.175 82.223,15.392 C82.107,15.405 81.991,15.425 81.88,15.452 C39.749,20.495 2.862,59.912 2.862,99.981 C2.862,137.084 31.682,155.12 90.971,155.12 C150.257,155.12 179.077,137.084 179.077,99.981 C179.077,62.888 147.226,25.574 107.977,16.786" id="Fill-1" fill="#FFFFFF"></path>
            <g id="head">
                <path d="M104.15,153.447 C102.195,153.253 100.548,152.945 99.295,152.539 C99.295,152.539 175.95,130.587 139.277,48.09 C138.224,46.462 136.409,44.422 134.211,43.533 C134.211,43.533 134.609,43.5 135.186,43.5 C135.968,43.5 137.078,43.561 137.969,43.85 C137.902,43.641 137.845,43.436 137.777,43.226 C136.368,41.837 134.304,39.976 132.871,39.456 C132.871,39.456 132.906,39.454 132.971,39.454 C133.395,39.454 135.098,39.511 136.824,40.352 C135.185,35.672 133.244,30.864 130.902,25.905 C146.975,34.99 160.589,48.87 168.851,65.06 C171.34,70.104 173.523,75.703 175.209,81.878 C176.628,87.523 177.386,93.323 177.386,99.195 C177.386,138.726 143.024,151.201 104.15,153.447" id="Fill-6" fill="#F5F4F2"></path>
                <path d="M89.775,151.685 C32.27,151.685 4.314,134.516 4.314,99.195 C4.314,59.541 40.661,21.954 81.312,17.261 L81.31,17.242 C84.636,16.882 85.991,14.993 87.938,12.395 C88.074,13.555 87.99,14.622 87.75,15.442 C87.431,16.535 86.827,17.679 87.551,18.185 C88.081,18.556 89.195,18.502 89.984,17.745 C90.146,17.593 92.412,15.397 94.363,11.899 C94.24,12.719 94.039,13.557 93.743,14.397 C93.199,15.942 92.342,17.487 90.989,18.911 C90.227,19.714 90.259,20.978 91.058,21.735 C91.469,22.127 92,22.307 92.523,22.284 C93.022,22.262 93.512,22.053 93.882,21.666 C95.246,20.23 96.22,18.715 96.933,17.189 C100.243,17.429 103.243,18.043 106.299,18.606 C143.569,26.954 175.23,62.184 175.23,99.195 C175.23,134.516 147.279,151.685 89.775,151.685 L89.775,151.685 L89.775,151.685 Z M137.161,27.304 C128.667,21.751 119.344,17.512 109.611,15.016 C105.573,13.999 101.933,13.345 98.26,12.939 C99.273,7.087 97.172,1.994 97.038,1.681 C96.867,1.381 96.749,1.206 96.603,1.055 C96.344,0.829 96.16,0.711 95.956,0.625 C95.704,0.53 95.494,0.49 95.272,0.488 C94.755,0.52 94.678,0.567 94.592,0.595 C94.165,0.77 94.019,0.877 93.882,1 C93.429,1.45 93.226,1.887 93.202,2.372 C93.09,4.684 92.403,6.827 91.531,8.665 C91.219,7.168 90.822,6.038 90.711,5.738 C90.418,4.95 89.666,4.429 88.826,4.43 C87.987,4.455 87.236,4.961 86.955,5.754 C85.071,11.022 82.45,12.756 80.271,13.076 C66.91,14.728 54.037,19.801 42.629,27.215 C35.5395432,33.4644061 32.857254,34.8002597 25.848,40.866 C10.164,56.77 0,77.684 0,99.195 C0,136.888 30.206,156 89.775,156 C149.343,156 179.545,136.888 179.545,99.195 C179.545,77.706 169.416,56.798 153.761,40.894 C146.2117,33.1838733 143.70575,32.0813857 137.161,27.304 L137.161,27.304 Z" id="hair" fill="#0A0A08"></path>
                <path d="M160.479,16.57 C144.187,3.426 137.179,13.309 137.161,27.304 C134.03252,25.2587388 137.584198,28.721152 142.537413,33.1169207 C151.032456,40.655913 146.947521,36.9542627 153.761,40.894 C164.803,37.817 176.932,29.844 160.479,16.57 Z" id="rightEar" fill="#0A0A08"></path>
                <path d="M34.8582069,35.3513921 C41.6701954,29.5594143 47.7759517,23.8700228 42.629,27.215 C42.596,17.63 39.272,10.006 31.92,10.424 C31.206,10.469 30.642,10.564 30.063,10.691 C29.855,10.735 29.649,10.777 29.435,10.833 C28.939,10.966 28.426,11.137 27.9,11.334 C27.563,11.459 27.22,11.598 26.87,11.75 C26.57,11.883 26.258,12.039 25.948,12.193 C25.324,12.499 24.683,12.844 24.02,13.238 C22.436,14.19 20.898,15.232 19.24,16.57 C2.843,29.799 14.835,37.766 25.848,40.866 C37.0418198,36.9635031 33.7574488,36.2873253 34.8582069,35.3513921 Z" id="leftEar" fill="#0A0A08"></path>
            </g>
            <path d="M127.874,106.189 C127.874,106.189 105.426,98.266 100.144,67.015 C94.863,35.764 127.874,43.027 140.418,57.552 C152.963,72.077 156.924,114.111 127.874,106.189" id="Fill-10" fill="#0A0A08"></path>
            <g id="rightEye" transform="translate(111.000000, 68.000000)">
                <path d="M0.761,10.201 C1.225,15.273 5.271,19.05 9.798,18.636 C14.326,18.222 17.62,13.774 17.156,8.702 C16.693,3.629 12.646,-0.147 8.119,0.267 C3.591,0.681 0.297,5.129 0.761,10.201" id="Fill-11" fill="#BFDFEC"></path>
                <g id="rightEyeInner" transform="translate(1.000000, 4.000000)">
                    <path d="M0.118,6.902 C0.118,9.975 2.609,12.466 5.682,12.466 C8.755,12.466 11.247,9.975 11.247,6.902 C11.247,3.829 8.755,1.338 5.682,1.338 C2.609,1.338 0.118,3.829 0.118,6.902" id="Fill-12" fill="#0F1214"></path>
                    <path d="M8.045,3.183 C8.045,4.446 9.069,5.47 10.332,5.47 C11.595,5.47 12.619,4.446 12.619,3.183 C12.619,1.92 11.595,0.896 10.332,0.896 C9.069,0.896 8.045,1.92 8.045,3.183" id="Fill-13" fill="#FFFFFF"></path>
                </g>
            </g>
            <path d="M51.671,106.189 C51.671,106.189 74.119,98.266 79.401,67.015 C84.682,35.764 51.671,43.027 39.127,57.552 C26.582,72.077 22.621,114.111 51.671,106.189" id="Fill-14" fill="#0A0A08"></path>
            <g id="leftEye" transform="translate(52.000000, 68.000000)">
                <path d="M16.869,10.201 C16.405,15.273 12.359,19.05 7.831,18.636 C3.304,18.222 0.01,13.774 0.473,8.702 C0.937,3.629 4.984,-0.147 9.511,0.267 C14.039,0.681 17.333,5.129 16.869,10.201" id="Fill-15" fill="#BFDFEC"></path>
                <g id="leftEyeInner" transform="translate(4.000000, 4.000000)">
                    <path d="M12.512,6.902 C12.512,9.975 10.021,12.466 6.948,12.466 C3.874,12.466 1.383,9.975 1.383,6.902 C1.383,3.829 3.874,1.338 6.948,1.338 C10.021,1.338 12.512,3.829 12.512,6.902" id="Fill-16" fill="#0F1214"></path>
                    <path d="M4.585,3.183 C4.585,4.446 3.561,5.47 2.298,5.47 C1.035,5.47 0.011,4.446 0.011,3.183 C0.011,1.92 1.035,0.896 2.298,0.896 C3.561,0.896 4.585,1.92 4.585,3.183" id="Fill-17" fill="#FFFFFF"></path>
                </g>
            </g>
            <g id="snout" transform="translate(47.000000, 82.000000)">
                <path d="M78.733,31.092 C78.733,31.092 78.518,0.939 40.127,0.939 C1.736,0.939 0.658,32.141 0.658,32.141 C0.658,32.141 79.263,31.092 78.733,31.092" id="Fill-19" fill="#FFFFFF"></path>
                <path d="M62.357,21.07 C58.601,15.68 53.604,19.034 41.452,19.282 L40.932,19.282 C28.781,19.034 23.784,15.68 20.027,21.07 C14.788,28.587 28.914,34.423 41.074,34.464 L41.129,34.461 L41.235,34.461 L41.371,34.464 C53.531,34.423 67.597,28.587 62.357,21.07" id="Fill-20" fill="#0A0A08"></path>
                <path d="M46.468,24.376 C46.383,25.535 41.568,26.127 35.713,25.698 C29.858,25.269 25.181,23.982 25.266,22.823 C25.351,21.665 30.166,21.073 36.021,21.502 C41.875,21.93 46.553,23.217 46.468,24.376" id="Fill-21" fill="#FFFFFF"></path>
                <path d="M59.898,45.947 C59.43,45.597 58.751,45.682 58.385,46.162 C58.355,46.208 54.98,50.59 48.745,50.59 C43.39,50.59 42.276,48.477 42.117,48.092 L42.117,33.716 C42.117,33.122 41.632,32.637 41.038,32.637 C40.444,32.637 39.96,33.122 39.96,33.716 L39.96,48.047 C39.834,48.377 38.795,50.59 33.319,50.59 C27.122,50.59 23.81,46.339 23.671,46.158 C23.313,45.682 22.63,45.593 22.162,45.951 C21.686,46.309 21.594,46.984 21.947,47.46 C22.112,47.675 26.014,52.748 33.319,52.748 C37.713,52.748 39.928,51.4 41.03,50.23 C42.132,51.4 44.349,52.748 48.745,52.748 C56.046,52.748 59.948,47.675 60.112,47.46 C60.471,46.984 60.374,46.309 59.898,45.947" id="Fill-22" fill="#0A0A08"></path>
            </g>
        </g>
    </g>
</svg>