<svg class="waves" xmlns="http://www.w3.org/2000/svg" xmlns:xlink="http://www.w3.org/1999/xlink" width="129px" height="160px" viewBox="0 0 129 160" version="1.1">
  <defs>
    <path d="M64.5 160C100.122366 160 129 130.226936 129 93.5 129 85.5768649 127.65604 77.9773618 125.190336 70.9305971 116.226505 45.3127572 94.3635541 0.351169988 66.426033 0.351169988 40.3761989 0.351169988 16.0071905 42.9216446 5.82642977 65.8411949 2.08530576 74.2634417 0 83.6306451 0 93.5 0 130.226936 28.8776336 160 64.5 160Z" id="path-1"/>
  </defs>
  <g id="Page-1" stroke="none" stroke-width="1" fill="none" fill-rule="evenodd">
    <g id="Group">
      <mask id="mask-2" fill="white">
        <use xlink:href="#path-1"/>
      </mask>
      <g id="Mask"/>
      <g id="waves" mask="url(#mask-2)">
        <g transform="translate(-27.000000, 82.000000)">
          <path d="M39.0833333 7.71256283C31.2333333 7.71256283 26 0.862562834 26 0.862562834L26.1715685 77.8096196 183 77.9999987 183 0.862562833C183 0.862562833 177.766667 7.71256283 169.916667 7.71256283 162.066667 7.71256283 156.833333 0.862562833 156.833333 0.862562833 156.833333 0.862562833 151.6 7.71256283 143.75 7.71256283 135.9 7.71256283 130.666667 0.862562833 130.666667 0.862562833 130.666667 0.862562833 125.433333 7.71256283 117.583333 7.71256283 109.733333 7.71256283 104.5 0.862562833 104.5 0.862562833 104.5 0.862562833 99.2666667 7.71256283 91.4166667 7.71256283 83.5666667 7.71256283 78.3333333 0.862562833 78.3333333 0.862562833 78.3333333 0.862562833 73.1 7.71256283 65.25 7.71256283 57.4 7.71256283 52.1666659 0.862562833 52.1666659 0.862562833 52.1666659 0.862562833 46.9333333 7.71256283 39.0833333 7.71256283Z" id="wavez1" fill="#0063A6" opacity="0.977378731"/>
          <g id="shark" stroke-width="1" fill="none" transform="translate(45.000000, 26.000000)">
            <path d="M84.5 42C85.8807119 42 87 40.209139 87 38 87 35.790861 85.8807119 34 84.5 34 83.1192881 34 82 35.790861 82 38 82 40.209139 83.1192881 42 84.5 42Z" id="Oval-2" fill="#313131" transform="translate(84.500000, 38.000000) rotate(-19.000000) translate(-84.500000, -38.000000) "/>
            <ellipse id="Oval-2" fill="#303030" transform="translate(12.500000, 38.000000) rotate(28.000000) translate(-12.500000, -38.000000) " cx="12.5" cy="38" rx="2.5" ry="4"/>
            <path d="M0 104C0 104 1.13655616 88.8942089 2.29728506 77.0489204 3.45801395 65.203632 7.36753593 50.257826 7.56202782 49.1818259 7.92358007 47.181587 9.8945329 47.1670919 10.92248 43.5728579 11.950427 39.9786239 10.985573 38.8884717 12.1909711 36.0704459 13.3963692 33.2524201 16.1818772 31.2772382 16.1818772 31.2772382 16.1818772 31.2772382 34.0404264 0.804668114 48.5292217 0.0171881107 63.0180171-0.770291893 74.919525 25.7438308 78.7259609 29.6606933 81.0083175 32.0092623 84.4077186 35.0214021 85.3344943 38.1051785 86.1901193 40.9522061 85.4496716 44.1888365 85.8891436 46.1929432 86.3286156 48.19705 91.3429063 59.3491559 92.8341308 68.3294755 95.6947338 85.5563438 96 103.991045 96 103.991045L0 104Z" id="Path-16" fill="#007C7C"/>
            <path d="M90 103.988309C90 103.988309 87.8384411 26.8846959 48.5167283 28.0122474 9.1950155 29.1397988 10.001251 104 10.001251 104L90 103.988309Z" id="Path-17" fill="#FDF4BB"/>
            <polygon id="Path-18" fill="#B81A0B" points="82.371782 104 87 96.8901063 82.1281916 98.3120851 86.0256383 85.7512729 80.5448538 88.3582339 83.1025533 72.0054785 75.6730454 78.9968739 78.35254 61.4540445 70.801237 69.2749276 73.2371412 49.2487271 63.4935243 56.7141154 62.7627531 36.4509185 55.6986309 50.1967129 51.6793889 31 46.5639901 50.0782147 39.3780726 33.3699646 37.5511445 53.5146633 27.680499 43.2002257 31.8129725 63.107928 22.4347412 58.7234936 26.4539832 72.469288 18.4154993 70.0993234 23.5308981 82.2995492 16.7051329 80.8775704 20.8461701 90.1255239 15 88.8220434 19.628218 97.472414 15.3653856 96.5244282 18.8974467 103.871318"/>
          </g>
          <g id="duck" stroke-width="1" fill="none" transform="translate(38.000000, 11.000000)">
            <path d="M5.03971687 1.05641106C6.07840771 1.07787838 7.04518658 1.60385982 7.52871335 2.5212987 8.1597306 3.71859515 7.75922074 5.1886409 6.65041229 6.05781573 6.48139398 6.23383191 6.4112718 6.44784315 6.48876827 6.62523146 6.56733588 6.80506876 6.77708905 6.90360989 7.04482496 6.88613079 7.31256088 6.86865169 8.1703732 6.64514202 8.59012215 6.57747865 9.0423894 6.50457393 9.21109644 6.41145303 9.88611687 6.09995056 10.4237813 5.85183551 10.5682008 5.2571636 10.7784991 5.02270337 10.9285805 4.79740719 11.1609417 4.67036 11.4021787 4.7151191 11.588715 4.74972854 11.7048658 4.81364449 11.7945704 4.96926921 11.7945704 4.96926921 12.298254 5.92424 12.3791699 6.10697528 12.4600903 6.28971056 12.8691921 7.01265393 12.9542139 7.73478427 13.5626185 12.902271 6.22479504 13.4469465 2.53784398 12.6701775 1.12793049 12.3731357 0.0374044331 11.209053 0.0374044331 9.74461573 0.0374044331 8.64666921 0.644101616 7.6895582 1.54653964 7.17579551 1.82867626 6.98706022 2.07415197 6.7438018 2.26462943 6.44686292 2.36970514 6.28305258 2.45275806 6.11098876 2.51495665 5.93422247 2.33259563 5.75144854 2.17500267 5.54207461 2.05006077 5.30500899 1.3240657 3.92750526 1.96178894 2.18749924 3.47479609 1.41877285 3.94760701 1.17854584 4.45022637 1.06165263 4.93958482 1.0564133 4.97322919 1.05605375 5.00620982 1.05572072 5.03971687 1.0564133L5.03971687 1.05641106Z" id="path3061" fill="#F2C802"/>
            <path d="M0.798481194 7.7642764C0.54314563 8.19941483 0.396520278 8.70455326 0.396520278 9.24320899 0.396520278 10.7076463 1.48704633 11.871729 2.89695982 12.1687708 5.68502954 12.7561622 10.3819483 12.5876764 12.4479051 10.2361865 10.7052276 13.0639393 5.50123518 13.2969002 2.52647356 12.6701753 1.11656007 12.3731335 0.0260340106 11.2090508 0.0260340106 9.74461348 0.0260340106 8.98291326 0.318314292 8.28940449 0.798481194 7.7642764L0.798481194 7.7642764Z" id="path4022" fill="#DA9C16"/>
            <path d="M3.61165771 2.91315263C3.11711299 2.91315263 2.71618658 3.30680054 2.71618658 3.79236611 2.71618658 4.27793169 3.11711299 4.67157978 3.61165771 4.67157978 4.10619785 4.67157978 4.50711968 4.27793169 4.50711968 3.79236611 4.50711968 3.59692598 4.4410394 3.41727757 4.33117567 3.2712987 4.41071827 3.38796013 4.4584887 3.52907276 4.4584887 3.68000656 4.4584887 4.0854587 4.12330384 4.41315263 3.71035701 4.41315263 3.29741018 4.41315263 2.96222532 4.0854587 2.96222532 3.68000656 2.96222532 3.27455443 3.29741018 2.945456 3.71035701 2.945456 3.83600842 2.945456 3.95401546 2.97595978 4.05796053 3.02972566 3.9266468 2.95553079 3.77403412 2.91315263 3.61165771 2.91315263L3.61165771 2.91315263Z" id="path4046" fill="#DA9C16"/>
            <path d="M4.45811895 3.67942241C4.45811895 4.08487452 4.12335905 4.41355839 3.71041179 4.41355839 3.29746453 4.41355839 2.96270463 4.08487452 2.96270463 3.67942241 2.96270463 3.2739703 3.29746453 2.94528642 3.71041179 2.94528642 4.12335905 2.94528642 4.45811895 3.2739703 4.45811895 3.67942241L4.45811895 3.67942241Z" id="path3945" fill="#393228" transform="translate(3.710412, 3.679422) scale(-1, 1) translate(-3.710412, -3.679422) "/>
            <path d="M2.60085278 4.6538782C2.54677461 4.51793034 2.26310056 4.32541681 2.017515 4.38697187 1.96013648 4.40135375 1.79763648 4.1047493 1.74227662 4.11125533 1.59426887 4.12864827 1.48983859 4.2663258 1.42572204 4.32784575 1.24735197 4.49898652 0.596706546 4.42643191 0.430265349 4.46529124 0.18958225 4.79732225 0.99130232 5.37377528 1.39140479 5.13010247 1.60382204 5.06324315 1.46991746 5.16478427 1.42625302 5.21045573 1.15824704 5.49077708 0.877909363 5.66950787 0.999354081 5.78874876 1.24450021 6.02944674 2.00056007 5.84194652 2.28525091 5.56242382 2.73252356 5.12327011 2.66190701 4.80735416 2.60085278 4.6538782L2.60085278 4.6538782Z" id="path4013" fill="#B94519"/>
            <path d="M4.93749996 1.65625C4.29231046 1.65625 3.24206517 1.64784273 2.75 0.625" id="path4020" stroke="#F2C802"/>
            <path d="M7.19099715 7.30601348C7.19099715 7.30601348 7.77375419 7.22958921 8.48637391 7.0739627 8.54837109 7.06042292 8.61135243 7.0462836 8.67502039 7.03154337 8.86096616 6.98849213 9.0527482 6.94031146 9.24294187 6.8869564 9.38180842 6.84799955 9.3770387 6.85608 9.52780665 6.79806652M9.97935525 6.61946427C10.4712542 6.4202373 10.7549288 6.24325348 10.8024155 6.16166517" id="path4032" stroke="#FFFFFF" stroke-width="0.5"/>
            <path d="M4.13771004 3.48614597C4.13829791 3.61321004 4.06959426 3.73086983 3.9576163 3.79456907 3.84563833 3.85826831 3.70750586 3.85826831 3.59552789 3.79456907 3.48354993 3.73086983 3.41484628 3.61321004 3.41543415 3.48614597 3.41484628 3.3590819 3.48354993 3.24142211 3.59552789 3.17772286 3.70750586 3.11402362 3.84563833 3.11402362 3.9576163 3.17772286 4.06959426 3.24142211 4.13829791 3.3590819 4.13771004 3.48614597L4.13771004 3.48614597Z" id="path4049" fill="#FFFFFF"/>
            <path d="M5.84295665 1.57192625C5.84295665 1.57192625 6.10969926 1.63701542 6.39910489 1.8794956M6.62432989 2.07613267C6.66017602 2.11085483 6.69667215 2.14836144 6.73357567 2.18885757 7.12823095 2.62193793 7.35076898 3.09254692 7.35076898 3.36607133" id="path4051" stroke="#FFFFFF" stroke-width="0.5"/>
          </g>
          <path d="M13.0833333 24.7125628C5.23333333 24.7125628-3.10862447e-14 17.8625628-3.10862447e-14 17.8625628L0.17156849 77.8096196 157 77.9999987 157 17.8625628C157 17.8625628 151.766667 24.7125628 143.916667 24.7125628 136.066667 24.7125628 130.833333 17.8625628 130.833333 17.8625628 130.833333 17.8625628 125.6 24.7125628 117.75 24.7125628 109.9 24.7125628 104.666667 17.8625628 104.666667 17.8625628 104.666667 17.8625628 99.4333333 24.7125628 91.5833333 24.7125628 83.7333333 24.7125628 78.5 17.8625628 78.5 17.8625628 78.5 17.8625628 73.2666667 24.7125628 65.4166667 24.7125628 57.5666667 24.7125628 52.3333333 17.8625628 52.3333333 17.8625628 52.3333333 17.8625628 47.1 24.7125628 39.25 24.7125628 31.4 24.7125628 26.1666659 17.8625628 26.1666659 17.8625628 26.1666659 17.8625628 20.9333333 24.7125628 13.0833333 24.7125628Z" id="wavez2" fill="#016FB6"/>
          <path d="M39.0833333 41.7125628C31.2333333 41.7125628 26 34.8625628 26 34.8625628L26.1715685 77.8096196 183 77.9999987 183 34.8625628C183 34.8625628 177.766667 41.7125628 169.916667 41.7125628 162.066667 41.7125628 156.833333 34.8625628 156.833333 34.8625628 156.833333 34.8625628 151.6 41.7125628 143.75 41.7125628 135.9 41.7125628 130.666667 34.8625628 130.666667 34.8625628 130.666667 34.8625628 125.433333 41.7125628 117.583333 41.7125628 109.733333 41.7125628 104.5 34.8625628 104.5 34.8625628 104.5 34.8625628 99.2666667 41.7125628 91.4166667 41.7125628 83.5666667 41.7125628 78.3333333 34.8625628 78.3333333 34.8625628 78.3333333 34.8625628 73.1 41.7125628 65.25 41.7125628 57.4 41.7125628 52.1666659 34.8625628 52.1666659 34.8625628 52.1666659 34.8625628 46.9333333 41.7125628 39.0833333 41.7125628Z" id="wavez3" fill="#007BC6" opacity="0.925373134"/>
          <path d="M13.0833333 61.7125628C5.23333333 61.7125628-2.66453526e-15 54.8625628-2.66453526e-15 54.8625628L0.17156849 91.8096196 157 91.9999987 157 54.8625628C157 54.8625628 151.766667 61.7125628 143.916667 61.7125628 136.066667 61.7125628 130.833333 54.8625628 130.833333 54.8625628 130.833333 54.8625628 125.6 61.7125628 117.75 61.7125628 109.9 61.7125628 104.666667 54.8625628 104.666667 54.8625628 104.666667 54.8625628 99.4333333 61.7125628 91.5833333 61.7125628 83.7333333 61.7125628 78.5 54.8625628 78.5 54.8625628 78.5 54.8625628 73.2666667 61.7125628 65.4166667 61.7125628 57.5666667 61.7125628 52.3333333 54.8625628 52.3333333 54.8625628 52.3333333 54.8625628 47.1 61.7125628 39.25 61.7125628 31.4 61.7125628 26.1666659 54.8625628 26.1666659 54.8625628 26.1666659 54.8625628 20.9333333 61.7125628 13.0833333 61.7125628Z" id="wavez4" fill="#0084D8" opacity="0.738572761"/>
        </g>
      </g>
    </g>
  </g>
</svg>